<svg xmlns="http://www.w3.org/2000/svg" width="1440" height="3840"><path d="M730,1988L919,1865L709,1840Z" fill="#66a9d3" stroke="#66a9d3" stroke-width="1.51"/><path d="M730,1988L912,1980L919,1865Z" fill="#5ca3d0" stroke="#5ca3d0" stroke-width="1.51"/><path d="M919,1865L745,1640L709,1840Z" fill="#6cacd5" stroke="#6cacd5" stroke-width="1.51"/><path d="M709,1840L539,1850L730,1988Z" fill="#76b3d9" stroke="#76b3d9" stroke-width="1.51"/><path d="M745,1640L539,1850L709,1840Z" fill="#7cb6d9" stroke="#7cb6d9" stroke-width="1.51"/><path d="M539,1850L536,2018L730,1988Z" fill="#7cb6d9" stroke="#7cb6d9" stroke-width="1.51"/><path d="M896,2224L1107,1995L912,1980Z" fill="#4c95c8" stroke="#4c95c8" stroke-width="1.51"/><path d="M912,1980L1107,1995L919,1865Z" fill="#5197ca" stroke="#5197ca" stroke-width="1.51"/><path d="M919,1865L894,1598L745,1640Z" fill="#6aaad3" stroke="#6aaad3" stroke-width="1.51"/><path d="M896,2224L912,1980L730,1988Z" fill="#589fce" stroke="#589fce" stroke-width="1.51"/><path d="M1130,1674L894,1598L919,1865Z" fill="#5f9ecd" stroke="#5f9ecd" stroke-width="1.51"/><path d="M679,2243L896,2224L730,1988Z" fill="#5da3d0" stroke="#5da3d0" stroke-width="1.51"/><path d="M1107,1995L1140,1848L919,1865Z" fill="#4f91c7" stroke="#4f91c7" stroke-width="1.51"/><path d="M557,2195L679,2243L730,1988Z" fill="#6cacd5" stroke="#6cacd5" stroke-width="1.51"/><path d="M536,2018L557,2195L730,1988Z" fill="#77b2d7" stroke="#77b2d7" stroke-width="1.51"/><path d="M1140,1848L1130,1674L919,1865Z" fill="#5594c8" stroke="#5594c8" stroke-width="1.51"/><path d="M745,1640L531,1594L539,1850Z" fill="#89bddc" stroke="#89bddc" stroke-width="1.51"/><path d="M539,1850L373,1988L536,2018Z" fill="#8cbddd" stroke="#8cbddd" stroke-width="1.51"/><path d="M750,1409L531,1594L745,1640Z" fill="#86bcdc" stroke="#86bcdc" stroke-width="1.51"/><path d="M291,1814L373,1988L539,1850Z" fill="#98c3e2" stroke="#98c3e2" stroke-width="1.51"/><path d="M536,2018L373,1988L557,2195Z" fill="#87badb" stroke="#87badb" stroke-width="1.51"/><path d="M896,2224L1111,2237L1107,1995Z" fill="#438cc4" stroke="#438cc4" stroke-width="1.51"/><path d="M1107,1995L1259,2039L1140,1848Z" fill="#4785bf" stroke="#4785bf" stroke-width="1.51"/><path d="M1070,2416L1111,2237L896,2224Z" fill="#3e89c2" stroke="#3e89c2" stroke-width="1.51"/><path d="M1111,2237L1259,2039L1107,1995Z" fill="#4183bd" stroke="#4183bd" stroke-width="1.51"/><path d="M1140,1848L1289,1779L1130,1674Z" fill="#5289c0" stroke="#5289c0" stroke-width="1.51"/><path d="M894,1598L750,1409L745,1640Z" fill="#78b3d7" stroke="#78b3d7" stroke-width="1.51"/><path d="M1130,1674L1059,1476L894,1598Z" fill="#649dcc" stroke="#649dcc" stroke-width="1.51"/><path d="M907,1409L750,1409L894,1598Z" fill="#77b1d5" stroke="#77b1d5" stroke-width="1.51"/><path d="M679,2243L758,2395L896,2224Z" fill="#569ece" stroke="#569ece" stroke-width="1.51"/><path d="M510,2375L758,2395L679,2243Z" fill="#66a7d1" stroke="#66a7d1" stroke-width="1.51"/><path d="M1259,2039L1289,1779L1140,1848Z" fill="#4882bb" stroke="#4882bb" stroke-width="1.51"/><path d="M1130,1674L1333,1467L1059,1476Z" fill="#6090c4" stroke="#6090c4" stroke-width="1.51"/><path d="M1059,1476L907,1409L894,1598Z" fill="#6ea7d1" stroke="#6ea7d1" stroke-width="1.51"/><path d="M531,1594L369,1656L539,1850Z" fill="#98c5e1" stroke="#98c5e1" stroke-width="1.51"/><path d="M325,1474L369,1656L531,1594Z" fill="#a6cce4" stroke="#a6cce4" stroke-width="1.51"/><path d="M758,2395L876,2409L896,2224Z" fill="#4c98ca" stroke="#4c98ca" stroke-width="1.51"/><path d="M1289,1779L1278,1670L1130,1674Z" fill="#5486bd" stroke="#5486bd" stroke-width="1.51"/><path d="M369,1656L291,1814L539,1850Z" fill="#9ec6e3" stroke="#9ec6e3" stroke-width="1.51"/><path d="M557,2195L510,2375L679,2243Z" fill="#73aed4" stroke="#73aed4" stroke-width="1.51"/><path d="M765,2618L918,2582L876,2409Z" fill="#4490c6" stroke="#4490c6" stroke-width="1.51"/><path d="M293,2230L510,2375L557,2195Z" fill="#84b6d9" stroke="#84b6d9" stroke-width="1.51"/><path d="M293,2230L557,2195L373,1988Z" fill="#8ebbdd" stroke="#8ebbdd" stroke-width="1.51"/><path d="M750,1409L542,1404L531,1594Z" fill="#94c3df" stroke="#94c3df" stroke-width="1.51"/><path d="M724,1246L542,1404L750,1409Z" fill="#90c1df" stroke="#90c1df" stroke-width="1.51"/><path d="M876,2409L1070,2416L896,2224Z" fill="#418fc5" stroke="#418fc5" stroke-width="1.51"/><path d="M1111,2237L1285,2234L1259,2039Z" fill="#3b7bb8" stroke="#3b7bb8" stroke-width="1.51"/><path d="M1303,2434L1285,2234L1111,2237Z" fill="#3376b4" stroke="#3376b4" stroke-width="1.51"/><path d="M1259,2039L1446,2058L1289,1779Z" fill="#4176ae" stroke="#4176ae" stroke-width="1.51"/><path d="M176,1979L293,2230L373,1988Z" fill="#9cc3e2" stroke="#9cc3e2" stroke-width="1.51"/><path d="M907,1409L900,1275L750,1409Z" fill="#7cb3d7" stroke="#7cb3d7" stroke-width="1.51"/><path d="M1092,1220L900,1275L907,1409Z" fill="#77aad3" stroke="#77aad3" stroke-width="1.51"/><path d="M1092,1220L907,1409L1059,1476Z" fill="#70a3cf" stroke="#70a3cf" stroke-width="1.51"/><path d="M291,1814L176,1979L373,1988Z" fill="#a0c8e5" stroke="#a0c8e5" stroke-width="1.51"/><path d="M136,1796L176,1979L291,1814Z" fill="#a9cde7" stroke="#a9cde7" stroke-width="1.51"/><path d="M161,1610L136,1796L291,1814Z" fill="#afd1e8" stroke="#afd1e8" stroke-width="1.51"/><path d="M542,1404L325,1474L531,1594Z" fill="#a4cce3" stroke="#a4cce3" stroke-width="1.51"/><path d="M365,1251L325,1474L542,1404Z" fill="#afd1e7" stroke="#afd1e7" stroke-width="1.51"/><path d="M1285,2234L1446,2058L1259,2039Z" fill="#3a72ac" stroke="#3a72ac" stroke-width="1.51"/><path d="M1520,1597L1333,1467L1278,1670Z" fill="#567bac" stroke="#567bac" stroke-width="1.51"/><path d="M900,1275L724,1246L750,1409Z" fill="#85b9db" stroke="#85b9db" stroke-width="1.51"/><path d="M161,1610L291,1814L369,1656Z" fill="#accfe7" stroke="#accfe7" stroke-width="1.51"/><path d="M1278,1670L1333,1467L1130,1674Z" fill="#5a87bd" stroke="#5a87bd" stroke-width="1.51"/><path d="M1520,1597L1278,1670L1289,1779Z" fill="#507aad" stroke="#507aad" stroke-width="1.51"/><path d="M876,2409L918,2582L1070,2416Z" fill="#3c8ac2" stroke="#3c8ac2" stroke-width="1.51"/><path d="M1463,2372L1461,2173L1285,2234Z" fill="#31669f" stroke="#31669f" stroke-width="1.51"/><path d="M765,2618L876,2409L758,2395Z" fill="#4d97c9" stroke="#4d97c9" stroke-width="1.51"/><path d="M293,2230L297,2392L510,2375Z" fill="#8cb7db" stroke="#8cb7db" stroke-width="1.51"/><path d="M557,2578L765,2618L758,2395Z" fill="#599dcd" stroke="#599dcd" stroke-width="1.51"/><path d="M176,1979L176,2207L293,2230Z" fill="#9ec4e2" stroke="#9ec4e2" stroke-width="1.51"/><path d="M-61,2173L176,2207L176,1979Z" fill="#a7c9e5" stroke="#a7c9e5" stroke-width="1.51"/><path d="M1303,2434L1111,2237L1070,2416Z" fill="#337bb8" stroke="#337bb8" stroke-width="1.51"/><path d="M1285,2234L1461,2173L1446,2058Z" fill="#366aa1" stroke="#366aa1" stroke-width="1.51"/><path d="M168,2372L297,2392L293,2230Z" fill="#94bdde" stroke="#94bdde" stroke-width="1.51"/><path d="M325,1474L161,1610L369,1656Z" fill="#b1d2e8" stroke="#b1d2e8" stroke-width="1.51"/><path d="M1660,2004L1518,1834L1446,2058Z" fill="#3d6a9e" stroke="#3d6a9e" stroke-width="1.51"/><path d="M1446,2058L1518,1834L1289,1779Z" fill="#416fa3" stroke="#416fa3" stroke-width="1.51"/><path d="M557,2578L758,2395L510,2375Z" fill="#69a7d1" stroke="#69a7d1" stroke-width="1.51"/><path d="M312,2615L557,2578L510,2375Z" fill="#7cadd5" stroke="#7cadd5" stroke-width="1.51"/><path d="M1144,2744L1104,2563L918,2582Z" fill="#2e7bbb" stroke="#2e7bbb" stroke-width="1.51"/><path d="M918,2582L1104,2563L1070,2416Z" fill="#3482be" stroke="#3482be" stroke-width="1.51"/><path d="M1104,2563L1303,2434L1070,2416Z" fill="#2e78b6" stroke="#2e78b6" stroke-width="1.51"/><path d="M1333,1467L1092,1220L1059,1476Z" fill="#6895c7" stroke="#6895c7" stroke-width="1.51"/><path d="M897,1013L708,1046L724,1246Z" fill="#8fbdde" stroke="#8fbdde" stroke-width="1.51"/><path d="M724,1246L496,1226L542,1404Z" fill="#9ec9e1" stroke="#9ec9e1" stroke-width="1.51"/><path d="M325,1474L107,1434L161,1610Z" fill="#bad7eb" stroke="#bad7eb" stroke-width="1.51"/><path d="M708,1046L496,1226L724,1246Z" fill="#9cc6e2" stroke="#9cc6e2" stroke-width="1.51"/><path d="M1518,1834L1520,1597L1289,1779Z" fill="#4a71a1" stroke="#4a71a1" stroke-width="1.51"/><path d="M1333,1467L1335,1216L1092,1220Z" fill="#698ec1" stroke="#698ec1" stroke-width="1.51"/><path d="M496,1226L365,1251L542,1404Z" fill="#acd0e6" stroke="#acd0e6" stroke-width="1.51"/><path d="M176,2207L168,2372L293,2230Z" fill="#99c0e0" stroke="#99c0e0" stroke-width="1.51"/><path d="M297,2392L312,2615L510,2375Z" fill="#87b3d9" stroke="#87b3d9" stroke-width="1.51"/><path d="M-28,2404L168,2372L176,2207Z" fill="#9fc3e1" stroke="#9fc3e1" stroke-width="1.51"/><path d="M1303,2434L1463,2372L1285,2234Z" fill="#2d69a5" stroke="#2d69a5" stroke-width="1.51"/><path d="M1461,2173L1660,2004L1446,2058Z" fill="#38689d" stroke="#38689d" stroke-width="1.51"/><path d="M1454,2591L1463,2372L1303,2434Z" fill="#27609b" stroke="#27609b" stroke-width="1.51"/><path d="M1520,1597L1456,1418L1333,1467Z" fill="#5878a5" stroke="#5878a5" stroke-width="1.51"/><path d="M107,1268L107,1434L325,1474Z" fill="#c0dbec" stroke="#c0dbec" stroke-width="1.51"/><path d="M-90,1615L-77,1786L136,1796Z" fill="#bddaed" stroke="#bddaed" stroke-width="1.51"/><path d="M136,1796L-93,1985L176,1979Z" fill="#afd0e9" stroke="#afd0e9" stroke-width="1.51"/><path d="M765,2618L877,2742L918,2582Z" fill="#418dc4" stroke="#418dc4" stroke-width="1.51"/><path d="M1104,2563L1321,2625L1303,2434Z" fill="#286daf" stroke="#286daf" stroke-width="1.51"/><path d="M707,2767L877,2742L765,2618Z" fill="#4990c6" stroke="#4990c6" stroke-width="1.51"/><path d="M1518,1834L1657,1672L1520,1597Z" fill="#4c72a2" stroke="#4c72a2" stroke-width="1.51"/><path d="M1696,2177L1660,2004L1461,2173Z" fill="#36669c" stroke="#36669c" stroke-width="1.51"/><path d="M897,1013L724,1246L900,1275Z" fill="#86b7da" stroke="#86b7da" stroke-width="1.51"/><path d="M496,1226L499,1060L365,1251Z" fill="#b3d2e8" stroke="#b3d2e8" stroke-width="1.51"/><path d="M1456,1418L1335,1216L1333,1467Z" fill="#6081af" stroke="#6081af" stroke-width="1.51"/><path d="M1092,1220L897,1013L900,1275Z" fill="#7dacd5" stroke="#7dacd5" stroke-width="1.51"/><path d="M105,2601L312,2615L297,2392Z" fill="#90b6db" stroke="#90b6db" stroke-width="1.51"/><path d="M557,2578L707,2767L765,2618Z" fill="#599acb" stroke="#599acb" stroke-width="1.51"/><path d="M549,2827L707,2767L557,2578Z" fill="#639dcc" stroke="#639dcc" stroke-width="1.51"/><path d="M1520,1597L1719,1437L1456,1418Z" fill="#5877a4" stroke="#5877a4" stroke-width="1.51"/><path d="M1456,1418L1515,1227L1335,1216Z" fill="#617ba7" stroke="#617ba7" stroke-width="1.51"/><path d="M1708,1806L1657,1672L1518,1834Z" fill="#4870a1" stroke="#4870a1" stroke-width="1.51"/><path d="M1144,2744L1321,2625L1104,2563Z" fill="#266fb1" stroke="#266fb1" stroke-width="1.51"/><path d="M-90,1615L136,1796L161,1610Z" fill="#bbd8ec" stroke="#bbd8ec" stroke-width="1.51"/><path d="M1143,1046L897,1013L1092,1220Z" fill="#7ca5d2" stroke="#7ca5d2" stroke-width="1.51"/><path d="M708,1046L499,1060L496,1226Z" fill="#a9cee5" stroke="#a9cee5" stroke-width="1.51"/><path d="M365,1251L107,1268L325,1474Z" fill="#bdd8eb" stroke="#bdd8eb" stroke-width="1.51"/><path d="M363,1013L499,1060L494,908Z" fill="#bbd6eb" stroke="#bbd6eb" stroke-width="1.51"/><path d="M1660,2004L1708,1806L1518,1834Z" fill="#426da0" stroke="#426da0" stroke-width="1.51"/><path d="M-77,1786L-93,1985L136,1796Z" fill="#b7d6eb" stroke="#b7d6eb" stroke-width="1.51"/><path d="M168,2372L105,2601L297,2392Z" fill="#95bbde" stroke="#95bbde" stroke-width="1.51"/><path d="M877,2742L1144,2744L918,2582Z" fill="#3380bd" stroke="#3380bd" stroke-width="1.51"/><path d="M1291,2784L1144,2744L1144,2950Z" fill="#1e69ae" stroke="#1e69ae" stroke-width="1.51"/><path d="M-93,1985L-61,2173L176,1979Z" fill="#b0d0e9" stroke="#b0d0e9" stroke-width="1.51"/><path d="M1261,1094L1143,1046L1092,1220Z" fill="#7599ca" stroke="#7599ca" stroke-width="1.51"/><path d="M1500,1013L1261,1094L1335,1216Z" fill="#6c85b4" stroke="#6c85b4" stroke-width="1.51"/><path d="M1335,1216L1261,1094L1092,1220Z" fill="#6f92c4" stroke="#6f92c4" stroke-width="1.51"/><path d="M1709,2407L1696,2177L1463,2372Z" fill="#2d6199" stroke="#2d6199" stroke-width="1.51"/><path d="M1463,2372L1696,2177L1461,2173Z" fill="#31639a" stroke="#31639a" stroke-width="1.51"/><path d="M1660,2004L1696,2177L1708,1806Z" fill="#3c6a9e" stroke="#3c6a9e" stroke-width="1.51"/><path d="M107,1434L-90,1615L161,1610Z" fill="#c2dced" stroke="#c2dced" stroke-width="1.51"/><path d="M-77,1786L-230,1978L-93,1985Z" fill="#b5d4eb" stroke="#b5d4eb" stroke-width="1.51"/><path d="M-81,1438L-90,1615L107,1434Z" fill="#c8e1ef" stroke="#c8e1ef" stroke-width="1.51"/><path d="M1321,2625L1454,2591L1303,2434Z" fill="#2562a1" stroke="#2562a1" stroke-width="1.51"/><path d="M1453,2791L1454,2591L1321,2625Z" fill="#1f5997" stroke="#1f5997" stroke-width="1.51"/><path d="M100,1025L107,1268L365,1251Z" fill="#c9def0" stroke="#c9def0" stroke-width="1.51"/><path d="M707,2767L728,2943L877,2742Z" fill="#478dc4" stroke="#478dc4" stroke-width="1.51"/><path d="M345,2761L549,2827L557,2578Z" fill="#74a4d0" stroke="#74a4d0" stroke-width="1.51"/><path d="M-61,2173L-28,2404L176,2207Z" fill="#a7c8e5" stroke="#a7c8e5" stroke-width="1.51"/><path d="M312,2615L345,2761L557,2578Z" fill="#7fabd5" stroke="#7fabd5" stroke-width="1.51"/><path d="M-216,2244L-28,2404L-61,2173Z" fill="#a9c9e5" stroke="#a9c9e5" stroke-width="1.51"/><path d="M107,2757L345,2761L312,2615Z" fill="#8baed8" stroke="#8baed8" stroke-width="1.51"/><path d="M1673,1259L1515,1227L1456,1418Z" fill="#607ba7" stroke="#607ba7" stroke-width="1.51"/><path d="M1719,1437L1520,1597L1657,1672Z" fill="#5375a3" stroke="#5375a3" stroke-width="1.51"/><path d="M-28,2404L105,2601L168,2372Z" fill="#9dc0e0" stroke="#9dc0e0" stroke-width="1.51"/><path d="M494,908L499,1060L708,1046Z" fill="#adcfe6" stroke="#adcfe6" stroke-width="1.51"/><path d="M499,1060L363,1013L365,1251Z" fill="#bbd6eb" stroke="#bbd6eb" stroke-width="1.51"/><path d="M-44,1278L107,1434L107,1268Z" fill="#cce2f0" stroke="#cce2f0" stroke-width="1.51"/><path d="M-44,1278L-81,1438L107,1434Z" fill="#cee3f1" stroke="#cee3f1" stroke-width="1.51"/><path d="M1144,2744L1291,2784L1321,2625Z" fill="#2067ac" stroke="#2067ac" stroke-width="1.51"/><path d="M949,2963L1144,2744L877,2742Z" fill="#2d7bba" stroke="#2d7bba" stroke-width="1.51"/><path d="M1708,1806L1719,1437L1657,1672Z" fill="#5073a2" stroke="#5073a2" stroke-width="1.51"/><path d="M1454,2591L1709,2407L1463,2372Z" fill="#275d96" stroke="#275d96" stroke-width="1.51"/><path d="M1696,2177L1709,2407L1708,1806Z" fill="#36669c" stroke="#36669c" stroke-width="1.51"/><path d="M1708,1806L1709,2407L1719,1437Z" fill="#416da0" stroke="#416da0" stroke-width="1.51"/><path d="M1706,2605L1709,2407L1454,2591Z" fill="#245b95" stroke="#245b95" stroke-width="1.51"/><path d="M-93,1985L-230,1978L-61,2173Z" fill="#b0d0e9" stroke="#b0d0e9" stroke-width="1.51"/><path d="M-257,1808L-230,1978L-77,1786Z" fill="#b7d6eb" stroke="#b7d6eb" stroke-width="1.51"/><path d="M-257,1808L-77,1786L-90,1615Z" fill="#bddaed" stroke="#bddaed" stroke-width="1.51"/><path d="M700,826L494,908L708,1046Z" fill="#a7cbe5" stroke="#a7cbe5" stroke-width="1.51"/><path d="M700,826L708,1046L897,1013Z" fill="#97c0e1" stroke="#97c0e1" stroke-width="1.51"/><path d="M549,2827L728,2943L707,2767Z" fill="#5794c8" stroke="#5794c8" stroke-width="1.51"/><path d="M486,3003L728,2943L549,2827Z" fill="#6197c9" stroke="#6197c9" stroke-width="1.51"/><path d="M1143,1046L1066,885L897,1013Z" fill="#81a8d4" stroke="#81a8d4" stroke-width="1.51"/><path d="M1305,874L1066,885L1143,1046Z" fill="#7c9ccb" stroke="#7c9ccb" stroke-width="1.51"/><path d="M1305,874L1143,1046L1261,1094Z" fill="#7794c6" stroke="#7794c6" stroke-width="1.51"/><path d="M-279,1587L-257,1808L-90,1615Z" fill="#c1dbee" stroke="#c1dbee" stroke-width="1.51"/><path d="M-37,1076L-44,1278L107,1268Z" fill="#d4e6f3" stroke="#d4e6f3" stroke-width="1.51"/><path d="M100,1025L365,1251L363,1013Z" fill="#c6dcef" stroke="#c6dcef" stroke-width="1.51"/><path d="M1066,885L950,850L897,1013Z" fill="#87afd8" stroke="#87afd8" stroke-width="1.51"/><path d="M-207,1439L-90,1615L-81,1438Z" fill="#c8e1ef" stroke="#c8e1ef" stroke-width="1.51"/><path d="M728,2943L949,2963L877,2742Z" fill="#3a85c0" stroke="#3a85c0" stroke-width="1.51"/><path d="M1515,1227L1500,1013L1335,1216Z" fill="#667da8" stroke="#667da8" stroke-width="1.51"/><path d="M1719,1437L1673,1259L1456,1418Z" fill="#5d79a6" stroke="#5d79a6" stroke-width="1.51"/><path d="M-28,2404L-24,2592L105,2601Z" fill="#a0bfe0" stroke="#a0bfe0" stroke-width="1.51"/><path d="M-230,1978L-216,2244L-61,2173Z" fill="#adcee7" stroke="#adcee7" stroke-width="1.51"/><path d="M-257,2430L-216,2244L-230,1978Z" fill="#abcbe6" stroke="#abcbe6" stroke-width="1.51"/><path d="M950,850L700,826L897,1013Z" fill="#91bbde" stroke="#91bbde" stroke-width="1.51"/><path d="M-257,2430L-24,2592L-28,2404Z" fill="#a3c2e1" stroke="#a3c2e1" stroke-width="1.51"/><path d="M105,2601L107,2757L312,2615Z" fill="#92b4da" stroke="#92b4da" stroke-width="1.51"/><path d="M345,2761L486,3003L549,2827Z" fill="#74a0cf" stroke="#74a0cf" stroke-width="1.51"/><path d="M1312,2937L1453,2791L1291,2784Z" fill="#19599d" stroke="#19599d" stroke-width="1.51"/><path d="M1291,2784L1453,2791L1321,2625Z" fill="#1e5c9e" stroke="#1e5c9e" stroke-width="1.51"/><path d="M949,2963L1144,2950L1144,2744Z" fill="#2171b5" stroke="#2171b5" stroke-width="1.51"/><path d="M-24,2592L107,2757L105,2601Z" fill="#9ab9dd" stroke="#9ab9dd" stroke-width="1.51"/><path d="M-235,1264L-207,1439L-81,1438Z" fill="#cee3f1" stroke="#cee3f1" stroke-width="1.51"/><path d="M1675,1043L1500,1013L1515,1227Z" fill="#697ea9" stroke="#697ea9" stroke-width="1.51"/><path d="M1097,688L926,697L950,850Z" fill="#8bb0d8" stroke="#8bb0d8" stroke-width="1.51"/><path d="M368,862L363,1013L494,908Z" fill="#c2d9ed" stroke="#c2d9ed" stroke-width="1.51"/><path d="M130,881L100,1025L363,1013Z" fill="#d1e2f3" stroke="#d1e2f3" stroke-width="1.51"/><path d="M-44,1278L-235,1264L-81,1438Z" fill="#d0e4f1" stroke="#d0e4f1" stroke-width="1.51"/><path d="M511,692L368,862L494,908Z" fill="#bfd9ec" stroke="#bfd9ec" stroke-width="1.51"/><path d="M-257,1808L-257,2430L-230,1978Z" fill="#afcfe8" stroke="#afcfe8" stroke-width="1.51"/><path d="M-207,1439L-279,1587L-90,1615Z" fill="#c6dfef" stroke="#c6dfef" stroke-width="1.51"/><path d="M1708,2771L1706,2605L1454,2591Z" fill="#1f5793" stroke="#1f5793" stroke-width="1.51"/><path d="M1500,1013L1305,874L1261,1094Z" fill="#7188b7" stroke="#7188b7" stroke-width="1.51"/><path d="M950,850L926,697L700,826Z" fill="#92bcde" stroke="#92bcde" stroke-width="1.51"/><path d="M728,2943L747,3129L949,2963Z" fill="#3f83be" stroke="#3f83be" stroke-width="1.51"/><path d="M949,2963L1123,3168L1144,2950Z" fill="#1f6cb1" stroke="#1f6cb1" stroke-width="1.51"/><path d="M346,3007L486,3003L345,2761Z" fill="#7ba1d0" stroke="#7ba1d0" stroke-width="1.51"/><path d="M1144,2950L1312,2937L1291,2784Z" fill="#1861a9" stroke="#1861a9" stroke-width="1.51"/><path d="M1453,2791L1708,2771L1454,2591Z" fill="#1d5592" stroke="#1d5592" stroke-width="1.51"/><path d="M1449,2963L1312,2937L1323,3142Z" fill="#145397" stroke="#145397" stroke-width="1.51"/><path d="M-75,836L-37,1076L100,1025Z" fill="#deeaf7" stroke="#deeaf7" stroke-width="1.51"/><path d="M100,1025L-37,1076L107,1268Z" fill="#d4e5f3" stroke="#d4e5f3" stroke-width="1.51"/><path d="M-207,1439L-235,1264L-279,1587Z" fill="#cce2f0" stroke="#cce2f0" stroke-width="1.51"/><path d="M-24,2592L-33,2824L107,2757Z" fill="#9cb9dd" stroke="#9cb9dd" stroke-width="1.51"/><path d="M-216,2244L-257,2430L-28,2404Z" fill="#a6c6e3" stroke="#a6c6e3" stroke-width="1.51"/><path d="M-279,1587L-257,2430L-257,1808Z" fill="#b4d3ea" stroke="#b4d3ea" stroke-width="1.51"/><path d="M115,3017L346,3007L345,2761Z" fill="#85a6d3" stroke="#85a6d3" stroke-width="1.51"/><path d="M115,3017L345,2761L107,2757Z" fill="#8dacd7" stroke="#8dacd7" stroke-width="1.51"/><path d="M1097,688L950,850L1066,885Z" fill="#86abd6" stroke="#86abd6" stroke-width="1.51"/><path d="M700,826L511,692L494,908Z" fill="#b3d3e8" stroke="#b3d3e8" stroke-width="1.51"/><path d="M1500,1013L1524,875L1305,874Z" fill="#6f80ac" stroke="#6f80ac" stroke-width="1.51"/><path d="M1305,874L1097,688L1066,885Z" fill="#809fce" stroke="#809fce" stroke-width="1.51"/><path d="M1673,1259L1675,1043L1515,1227Z" fill="#657ca8" stroke="#657ca8" stroke-width="1.51"/><path d="M1721,897L1675,1043L1673,1259Z" fill="#6a7eaa" stroke="#6a7eaa" stroke-width="1.51"/><path d="M-211,1098L-235,1264L-44,1278Z" fill="#d4e6f3" stroke="#d4e6f3" stroke-width="1.51"/><path d="M-37,1076L-211,1098L-44,1278Z" fill="#d7e7f4" stroke="#d7e7f4" stroke-width="1.51"/><path d="M368,862L130,881L363,1013Z" fill="#ccdef1" stroke="#ccdef1" stroke-width="1.51"/><path d="M293,678L130,881L368,862Z" fill="#d1e2f3" stroke="#d1e2f3" stroke-width="1.51"/><path d="M534,3153L747,3129L728,2943Z" fill="#528cc2" stroke="#528cc2" stroke-width="1.51"/><path d="M534,3153L728,2943L486,3003Z" fill="#6193c6" stroke="#6193c6" stroke-width="1.51"/><path d="M926,697L758,665L700,826Z" fill="#9ac2e1" stroke="#9ac2e1" stroke-width="1.51"/><path d="M1312,2937L1449,2963L1453,2791Z" fill="#155293" stroke="#155293" stroke-width="1.51"/><path d="M1323,3142L1312,2937L1144,2950Z" fill="#145ca5" stroke="#145ca5" stroke-width="1.51"/><path d="M758,665L511,692L700,826Z" fill="#a9cde6" stroke="#a9cde6" stroke-width="1.51"/><path d="M1293,664L1097,688L1305,874Z" fill="#7f99c9" stroke="#7f99c9" stroke-width="1.51"/><path d="M928,468L702,506L758,665Z" fill="#9fc5e3" stroke="#9fc5e3" stroke-width="1.51"/><path d="M-220,2759L-33,2824L-24,2592Z" fill="#9db9dd" stroke="#9db9dd" stroke-width="1.51"/><path d="M1695,2980L1708,2771L1453,2791Z" fill="#175090" stroke="#175090" stroke-width="1.51"/><path d="M1706,2605L1708,2771L1709,2407Z" fill="#225894" stroke="#225894" stroke-width="1.51"/><path d="M1709,2407L1708,2771L1719,1437Z" fill="#33649a" stroke="#33649a" stroke-width="1.51"/><path d="M1675,1043L1524,875L1500,1013Z" fill="#6e7fab" stroke="#6e7fab" stroke-width="1.51"/><path d="M-257,2430L-219,2635L-24,2592Z" fill="#a1bfe0" stroke="#a1bfe0" stroke-width="1.51"/><path d="M747,3129L949,3165L949,2963Z" fill="#337cb9" stroke="#337cb9" stroke-width="1.51"/><path d="M371,3124L486,3003L346,3007Z" fill="#789ccc" stroke="#789ccc" stroke-width="1.51"/><path d="M371,3124L534,3153L486,3003Z" fill="#7098c9" stroke="#7098c9" stroke-width="1.51"/><path d="M747,3129L695,3322L949,3165Z" fill="#3e7eb9" stroke="#3e7eb9" stroke-width="1.51"/><path d="M-232,870L-211,1098L-37,1076Z" fill="#ddeaf6" stroke="#ddeaf6" stroke-width="1.51"/><path d="M172,3152L371,3124L346,3007Z" fill="#819fce" stroke="#819fce" stroke-width="1.51"/><path d="M949,3165L1123,3168L949,2963Z" fill="#2570b3" stroke="#2570b3" stroke-width="1.51"/><path d="M-33,2824L115,3017L107,2757Z" fill="#95b1d9" stroke="#95b1d9" stroke-width="1.51"/><path d="M-10,3001L115,3017L-33,2824Z" fill="#97afd8" stroke="#97afd8" stroke-width="1.51"/><path d="M130,881L-75,836L100,1025Z" fill="#dce9f7" stroke="#dce9f7" stroke-width="1.51"/><path d="M511,692L293,678L368,862Z" fill="#c8ddf0" stroke="#c8ddf0" stroke-width="1.51"/><path d="M346,458L293,678L511,692Z" fill="#cde0f1" stroke="#cde0f1" stroke-width="1.51"/><path d="M1462,700L1293,664L1305,874Z" fill="#798cba" stroke="#798cba" stroke-width="1.51"/><path d="M928,468L758,665L926,697Z" fill="#97bedf" stroke="#97bedf" stroke-width="1.51"/><path d="M-219,2635L-220,2759L-24,2592Z" fill="#9fbbde" stroke="#9fbbde" stroke-width="1.51"/><path d="M-257,2430L-220,2759L-219,2635Z" fill="#a0bedf" stroke="#a0bedf" stroke-width="1.51"/><path d="M1123,3168L1323,3142L1144,2950Z" fill="#165fa7" stroke="#165fa7" stroke-width="1.51"/><path d="M1449,2963L1695,2980L1453,2791Z" fill="#154f8e" stroke="#154f8e" stroke-width="1.51"/><path d="M1675,1043L1721,897L1524,875Z" fill="#6f80ab" stroke="#6f80ab" stroke-width="1.51"/><path d="M1524,875L1462,700L1305,874Z" fill="#7383ae" stroke="#7383ae" stroke-width="1.51"/><path d="M1719,1437L1721,897L1673,1259Z" fill="#647ca8" stroke="#647ca8" stroke-width="1.51"/><path d="M1718,708L1462,700L1524,875Z" fill="#7383ad" stroke="#7383ad" stroke-width="1.51"/><path d="M115,3017L172,3152L346,3007Z" fill="#87a4d1" stroke="#87a4d1" stroke-width="1.51"/><path d="M-233,2961L-10,3001L-33,2824Z" fill="#99b1d9" stroke="#99b1d9" stroke-width="1.51"/><path d="M-26,682L-75,836L130,881Z" fill="#e2edf9" stroke="#e2edf9" stroke-width="1.51"/><path d="M1699,3150L1695,2980L1449,2963Z" fill="#124b8b" stroke="#124b8b" stroke-width="1.51"/><path d="M758,665L702,506L511,692Z" fill="#accfe7" stroke="#accfe7" stroke-width="1.51"/><path d="M928,468L926,697L1097,688Z" fill="#8fb3da" stroke="#8fb3da" stroke-width="1.51"/><path d="M1137,504L1097,688L1253,513Z" fill="#87a2d0" stroke="#87a2d0" stroke-width="1.51"/><path d="M-20,3193L172,3152L115,3017Z" fill="#8fa7d1" stroke="#8fa7d1" stroke-width="1.51"/><path d="M558,3320L695,3322L534,3153Z" fill="#5b8abf" stroke="#5b8abf" stroke-width="1.51"/><path d="M534,3153L695,3322L747,3129Z" fill="#5287bf" stroke="#5287bf" stroke-width="1.51"/><path d="M1135,3385L1274,3317L1123,3168Z" fill="#125ba3" stroke="#125ba3" stroke-width="1.51"/><path d="M558,3320L534,3153L371,3124Z" fill="#6b93c4" stroke="#6b93c4" stroke-width="1.51"/><path d="M1274,3317L1459,3189L1323,3142Z" fill="#0e4d93" stroke="#0e4d93" stroke-width="1.51"/><path d="M293,678L109,659L130,881Z" fill="#d8e6f5" stroke="#d8e6f5" stroke-width="1.51"/><path d="M127,491L109,659L293,678Z" fill="#dce9f6" stroke="#dce9f6" stroke-width="1.51"/><path d="M1253,513L1097,688L1293,664Z" fill="#839ccb" stroke="#839ccb" stroke-width="1.51"/><path d="M1137,504L928,468L1097,688Z" fill="#8cadd7" stroke="#8cadd7" stroke-width="1.51"/><path d="M293,3398L558,3320L371,3124Z" fill="#7494c5" stroke="#7494c5" stroke-width="1.51"/><path d="M1323,3142L1459,3189L1449,2963Z" fill="#114b8e" stroke="#114b8e" stroke-width="1.51"/><path d="M1274,3317L1323,3142L1123,3168Z" fill="#0f57a1" stroke="#0f57a1" stroke-width="1.51"/><path d="M745,263L702,506L928,468Z" fill="#a3c7e4" stroke="#a3c7e4" stroke-width="1.51"/><path d="M1511,505L1253,513L1293,664Z" fill="#7d8fbb" stroke="#7d8fbb" stroke-width="1.51"/><path d="M1511,505L1293,664L1462,700Z" fill="#7887b1" stroke="#7887b1" stroke-width="1.51"/><path d="M702,506L508,471L511,692Z" fill="#b8d6ea" stroke="#b8d6ea" stroke-width="1.51"/><path d="M554,319L508,471L702,506Z" fill="#bad7eb" stroke="#bad7eb" stroke-width="1.51"/><path d="M-244,661L-232,870L-75,836Z" fill="#e3eef9" stroke="#e3eef9" stroke-width="1.51"/><path d="M-75,836L-232,870L-37,1076Z" fill="#e0ebf8" stroke="#e0ebf8" stroke-width="1.51"/><path d="M-211,1098L-232,870L-235,1264Z" fill="#dae9f6" stroke="#dae9f6" stroke-width="1.51"/><path d="M-235,1264L-232,870L-279,1587Z" fill="#d3e6f3" stroke="#d3e6f3" stroke-width="1.51"/><path d="M109,659L-26,682L130,881Z" fill="#dfebf8" stroke="#dfebf8" stroke-width="1.51"/><path d="M-45,492L-26,682L109,659Z" fill="#e6f0fa" stroke="#e6f0fa" stroke-width="1.51"/><path d="M-257,2430L-233,2961L-220,2759Z" fill="#9db9dd" stroke="#9db9dd" stroke-width="1.51"/><path d="M-220,2759L-233,2961L-33,2824Z" fill="#9ab4db" stroke="#9ab4db" stroke-width="1.51"/><path d="M-10,3001L-20,3193L115,3017Z" fill="#94abd5" stroke="#94abd5" stroke-width="1.51"/><path d="M1135,3385L1123,3168L949,3165Z" fill="#1c66ac" stroke="#1c66ac" stroke-width="1.51"/><path d="M695,3322L878,3397L949,3165Z" fill="#3677b5" stroke="#3677b5" stroke-width="1.51"/><path d="M883,3540L878,3397L761,3575Z" fill="#3470ac" stroke="#3470ac" stroke-width="1.51"/><path d="M1721,897L1718,708L1524,875Z" fill="#7282ac" stroke="#7282ac" stroke-width="1.51"/><path d="M508,471L346,458L511,692Z" fill="#c6ddef" stroke="#c6ddef" stroke-width="1.51"/><path d="M370,301L346,458L508,471Z" fill="#cfe1f1" stroke="#cfe1f1" stroke-width="1.51"/><path d="M878,3397L1135,3385L949,3165Z" fill="#246bae" stroke="#246bae" stroke-width="1.51"/><path d="M1695,2980L1699,3150L1708,2771Z" fill="#144d8d" stroke="#144d8d" stroke-width="1.51"/><path d="M1459,3189L1699,3150L1449,2963Z" fill="#114889" stroke="#114889" stroke-width="1.51"/><path d="M1671,3398L1699,3150L1459,3189Z" fill="#0c4486" stroke="#0c4486" stroke-width="1.51"/><path d="M1478,3395L1459,3189L1274,3317Z" fill="#0b458a" stroke="#0b458a" stroke-width="1.51"/><path d="M-248,3132L-20,3193L-10,3001Z" fill="#96abd4" stroke="#96abd4" stroke-width="1.51"/><path d="M172,3152L293,3398L371,3124Z" fill="#809bcb" stroke="#809bcb" stroke-width="1.51"/><path d="M761,3575L878,3397L695,3322Z" fill="#3d77b3" stroke="#3d77b3" stroke-width="1.51"/><path d="M941,281L928,468L1138,269Z" fill="#95b6db" stroke="#95b6db" stroke-width="1.51"/><path d="M1718,708L1511,505L1462,700Z" fill="#7685ae" stroke="#7685ae" stroke-width="1.51"/><path d="M-26,682L-244,661L-75,836Z" fill="#e5eff9" stroke="#e5eff9" stroke-width="1.51"/><path d="M346,458L127,491L293,678Z" fill="#d8e6f5" stroke="#d8e6f5" stroke-width="1.51"/><path d="M143,3381L293,3398L172,3152Z" fill="#849bca" stroke="#849bca" stroke-width="1.51"/><path d="M346,458L111,309L127,491Z" fill="#dfebf7" stroke="#dfebf7" stroke-width="1.51"/><path d="M745,263L554,319L702,506Z" fill="#b1d2e9" stroke="#b1d2e9" stroke-width="1.51"/><path d="M928,468L1137,504L1138,269Z" fill="#8faed7" stroke="#8faed7" stroke-width="1.51"/><path d="M-20,3193L143,3381L172,3152Z" fill="#8ca2ce" stroke="#8ca2ce" stroke-width="1.51"/><path d="M-233,2961L-248,3132L-10,3001Z" fill="#97aed6" stroke="#97aed6" stroke-width="1.51"/><path d="M-257,2430L-248,3132L-233,2961Z" fill="#9ab5db" stroke="#9ab5db" stroke-width="1.51"/><path d="M-279,3922L-248,3132L-257,2430Z" fill="#95a9d2" stroke="#95a9d2" stroke-width="1.51"/><path d="M-47,3332L143,3381L-20,3193Z" fill="#90a3ce" stroke="#90a3ce" stroke-width="1.51"/><path d="M1138,269L1137,504L1253,513Z" fill="#8aa3d0" stroke="#8aa3d0" stroke-width="1.51"/><path d="M-45,492L-244,661L-26,682Z" fill="#e7f1fa" stroke="#e7f1fa" stroke-width="1.51"/><path d="M-232,870L-244,661L-279,1587Z" fill="#dce9f6" stroke="#dce9f6" stroke-width="1.51"/><path d="M1298,3564L1478,3395L1274,3317Z" fill="#09468c" stroke="#09468c" stroke-width="1.51"/><path d="M1298,3564L1274,3317L1135,3385Z" fill="#0b519a" stroke="#0b519a" stroke-width="1.51"/><path d="M941,281L745,263L928,468Z" fill="#9dc2e1" stroke="#9dc2e1" stroke-width="1.51"/><path d="M878,3397L1111,3570L1135,3385Z" fill="#1c61a5" stroke="#1c61a5" stroke-width="1.51"/><path d="M761,3575L695,3322L510,3558Z" fill="#4e7eb4" stroke="#4e7eb4" stroke-width="1.51"/><path d="M695,3322L558,3320L510,3558Z" fill="#5a86bb" stroke="#5a86bb" stroke-width="1.51"/><path d="M1313,272L1138,269L1253,513Z" fill="#899ecc" stroke="#899ecc" stroke-width="1.51"/><path d="M1718,708L1666,500L1511,505Z" fill="#7886ae" stroke="#7886ae" stroke-width="1.51"/><path d="M127,491L-45,492L109,659Z" fill="#e5eff9" stroke="#e5eff9" stroke-width="1.51"/><path d="M111,309L-45,492L127,491Z" fill="#e8f1fa" stroke="#e8f1fa" stroke-width="1.51"/><path d="M370,301L508,471L554,319Z" fill="#c8dfef" stroke="#c8dfef" stroke-width="1.51"/><path d="M309,103L370,301L495,52Z" fill="#d7e7f5" stroke="#d7e7f5" stroke-width="1.51"/><path d="M1313,272L1253,513L1511,505Z" fill="#8191bc" stroke="#8191bc" stroke-width="1.51"/><path d="M941,281L936,113L745,263Z" fill="#a1c4e2" stroke="#a1c4e2" stroke-width="1.51"/><path d="M-204,3350L-47,3332L-20,3193Z" fill="#93a3cf" stroke="#93a3cf" stroke-width="1.51"/><path d="M883,3540L1111,3570L878,3397Z" fill="#2666a7" stroke="#2666a7" stroke-width="1.51"/><path d="M510,3558L558,3320L293,3398Z" fill="#6b8cbe" stroke="#6b8cbe" stroke-width="1.51"/><path d="M510,3558L293,3398L356,3550Z" fill="#728cbd" stroke="#728cbd" stroke-width="1.51"/><path d="M356,3550L293,3398L165,3530Z" fill="#7c91c0" stroke="#7c91c0" stroke-width="1.51"/><path d="M1084,3760L1111,3570L883,3540Z" fill="#1e5c9d" stroke="#1e5c9d" stroke-width="1.51"/><path d="M1529,302L1313,272L1511,505Z" fill="#7d89b0" stroke="#7d89b0" stroke-width="1.51"/><path d="M562,3715L755,3701L761,3575Z" fill="#4674aa" stroke="#4674aa" stroke-width="1.51"/><path d="M165,3530L293,3398L143,3381Z" fill="#8196c5" stroke="#8196c5" stroke-width="1.51"/><path d="M1478,3395L1671,3398L1459,3189Z" fill="#0a4184" stroke="#0a4184" stroke-width="1.51"/><path d="M1516,3550L1671,3398L1478,3395Z" fill="#093d7f" stroke="#093d7f" stroke-width="1.51"/><path d="M1111,3570L1298,3564L1135,3385Z" fill="#10539a" stroke="#10539a" stroke-width="1.51"/><path d="M-45,492L-209,469L-244,661Z" fill="#e9f2fb" stroke="#e9f2fb" stroke-width="1.51"/><path d="M370,301L111,309L346,458Z" fill="#dbe8f6" stroke="#dbe8f6" stroke-width="1.51"/><path d="M-19,265L111,309L102,123Z" fill="#edf4fc" stroke="#edf4fc" stroke-width="1.51"/><path d="M-67,3595L165,3530L143,3381Z" fill="#8998c3" stroke="#8998c3" stroke-width="1.51"/><path d="M1666,500L1529,302L1511,505Z" fill="#7b87b0" stroke="#7b87b0" stroke-width="1.51"/><path d="M-19,265L-209,469L-45,492Z" fill="#edf4fc" stroke="#edf4fc" stroke-width="1.51"/><path d="M-47,3332L-67,3595L143,3381Z" fill="#8f9ec9" stroke="#8f9ec9" stroke-width="1.51"/><path d="M-248,3132L-204,3350L-20,3193Z" fill="#94a6d1" stroke="#94a6d1" stroke-width="1.51"/><path d="M745,263L697,108L554,319Z" fill="#b5d4ea" stroke="#b5d4ea" stroke-width="1.51"/><path d="M1138,269L936,113L941,281Z" fill="#98b8dc" stroke="#98b8dc" stroke-width="1.51"/><path d="M1100,84L936,113L1138,269Z" fill="#97b3da" stroke="#97b3da" stroke-width="1.51"/><path d="M1267,139L1138,269L1313,272Z" fill="#8ca0cd" stroke="#8ca0cd" stroke-width="1.51"/><path d="M1298,3564L1516,3550L1478,3395Z" fill="#093c7d" stroke="#093c7d" stroke-width="1.51"/><path d="M936,113L697,108L745,263Z" fill="#aacce6" stroke="#aacce6" stroke-width="1.51"/><path d="M1111,3570L1308,3763L1298,3564Z" fill="#0b498f" stroke="#0b498f" stroke-width="1.51"/><path d="M1298,3564L1483,3735L1516,3550Z" fill="#093877" stroke="#093877" stroke-width="1.51"/><path d="M761,3575L755,3701L883,3540Z" fill="#386fa8" stroke="#386fa8" stroke-width="1.51"/><path d="M562,3715L761,3575L510,3558Z" fill="#547cae" stroke="#547cae" stroke-width="1.51"/><path d="M562,3715L510,3558L377,3727Z" fill="#6481b0" stroke="#6481b0" stroke-width="1.51"/><path d="M1458,73L1267,139L1313,272Z" fill="#8896bf" stroke="#8896bf" stroke-width="1.51"/><path d="M1529,302L1458,73L1313,272Z" fill="#828cb2" stroke="#828cb2" stroke-width="1.51"/><path d="M1666,500L1644,275L1529,302Z" fill="#7d89b0" stroke="#7d89b0" stroke-width="1.51"/><path d="M1672,134L1644,275L1666,500Z" fill="#7f8ab1" stroke="#7f8ab1" stroke-width="1.51"/><path d="M377,3727L510,3558L356,3550Z" fill="#6d86b6" stroke="#6d86b6" stroke-width="1.51"/><path d="M111,309L-19,265L-45,492Z" fill="#edf4fc" stroke="#edf4fc" stroke-width="1.51"/><path d="M309,103L111,309L370,301Z" fill="#dfebf7" stroke="#dfebf7" stroke-width="1.51"/><path d="M1267,139L1100,84L1138,269Z" fill="#91a8d3" stroke="#91a8d3" stroke-width="1.51"/><path d="M521,-121L495,52L697,108Z" fill="#c7e0ef" stroke="#c7e0ef" stroke-width="1.51"/><path d="M1664,3746L1703,3515L1516,3550Z" fill="#093877" stroke="#093877" stroke-width="1.51"/><path d="M1516,3550L1703,3515L1671,3398Z" fill="#093c7d" stroke="#093c7d" stroke-width="1.51"/><path d="M1671,3398L1703,3515L1699,3150Z" fill="#094083" stroke="#094083" stroke-width="1.51"/><path d="M1699,3150L1703,3515L1708,2771Z" fill="#104788" stroke="#104788" stroke-width="1.51"/><path d="M1708,2771L1713,3978L1719,1437Z" fill="#1d5492" stroke="#1d5492" stroke-width="1.51"/><path d="M495,52L554,319L697,108Z" fill="#c2dced" stroke="#c2dced" stroke-width="1.51"/><path d="M495,52L370,301L554,319Z" fill="#cce2f0" stroke="#cce2f0" stroke-width="1.51"/><path d="M758,-95L697,108L936,113Z" fill="#adcde7" stroke="#adcde7" stroke-width="1.51"/><path d="M169,3706L377,3727L356,3550Z" fill="#7689b6" stroke="#7689b6" stroke-width="1.51"/><path d="M169,3706L356,3550L165,3530Z" fill="#7c8ebc" stroke="#7c8ebc" stroke-width="1.51"/><path d="M755,3701L883,3778L883,3540Z" fill="#3369a3" stroke="#3369a3" stroke-width="1.51"/><path d="M916,3930L883,3778L741,3961Z" fill="#30639a" stroke="#30639a" stroke-width="1.51"/><path d="M1062,3904L883,3778L916,3930Z" fill="#245a95" stroke="#245a95" stroke-width="1.51"/><path d="M883,3778L1084,3760L883,3540Z" fill="#25609d" stroke="#25609d" stroke-width="1.51"/><path d="M-204,3350L-67,3595L-47,3332Z" fill="#909eca" stroke="#909eca" stroke-width="1.51"/><path d="M-33,101L102,123L-57,-78Z" fill="#f5fafe" stroke="#f5fafe" stroke-width="1.51"/><path d="M309,103L102,123L111,309Z" fill="#e7f0f9" stroke="#e7f0f9" stroke-width="1.51"/><path d="M-19,265L-223,265L-209,469Z" fill="#eff5fc" stroke="#eff5fc" stroke-width="1.51"/><path d="M-67,3595L169,3706L165,3530Z" fill="#8693be" stroke="#8693be" stroke-width="1.51"/><path d="M1307,3931L1308,3763L1084,3760Z" fill="#0b4386" stroke="#0b4386" stroke-width="1.51"/><path d="M1084,3760L1308,3763L1111,3570Z" fill="#104d91" stroke="#104d91" stroke-width="1.51"/><path d="M-33,101L-223,265L-19,265Z" fill="#f2f7fd" stroke="#f2f7fd" stroke-width="1.51"/><path d="M-209,469L-223,265L-244,661Z" fill="#ebf3fb" stroke="#ebf3fb" stroke-width="1.51"/><path d="M1269,-61L1122,-71L1100,84Z" fill="#96abd4" stroke="#96abd4" stroke-width="1.51"/><path d="M883,-141L758,-95L936,113Z" fill="#a8c8e5" stroke="#a8c8e5" stroke-width="1.51"/><path d="M1672,134L1458,73L1529,302Z" fill="#828bb2" stroke="#828bb2" stroke-width="1.51"/><path d="M1308,3763L1483,3735L1298,3564Z" fill="#093c7d" stroke="#093c7d" stroke-width="1.51"/><path d="M1644,275L1672,134L1529,302Z" fill="#818bb1" stroke="#818bb1" stroke-width="1.51"/><path d="M1718,708L1672,134L1666,500Z" fill="#7b87b0" stroke="#7b87b0" stroke-width="1.51"/><path d="M-67,3595L-73,3720L169,3706Z" fill="#8a94bc" stroke="#8a94bc" stroke-width="1.51"/><path d="M-204,3350L-196,3596L-67,3595Z" fill="#8e9bc5" stroke="#8e9bc5" stroke-width="1.51"/><path d="M-221,3725L-196,3596L-204,3350Z" fill="#8d99c2" stroke="#8d99c2" stroke-width="1.51"/><path d="M165,-101L102,123L309,103Z" fill="#e9f2fa" stroke="#e9f2fa" stroke-width="1.51"/><path d="M102,123L-33,101L-19,265Z" fill="#f2f8fd" stroke="#f2f8fd" stroke-width="1.51"/><path d="M1122,-71L936,113L1100,84Z" fill="#9ab5db" stroke="#9ab5db" stroke-width="1.51"/><path d="M495,52L342,-68L309,103Z" fill="#dbe9f6" stroke="#dbe9f6" stroke-width="1.51"/><path d="M1269,-61L1267,139L1458,73Z" fill="#8c99c2" stroke="#8c99c2" stroke-width="1.51"/><path d="M1269,-61L1100,84L1267,139Z" fill="#92a5d0" stroke="#92a5d0" stroke-width="1.51"/><path d="M1447,-52L1269,-61L1458,73Z" fill="#8a93ba" stroke="#8a93ba" stroke-width="1.51"/><path d="M883,3778L1062,3904L1084,3760Z" fill="#1e5794" stroke="#1e5794" stroke-width="1.51"/><path d="M1308,3763L1494,3949L1483,3735Z" fill="#08326d" stroke="#08326d" stroke-width="1.51"/><path d="M883,3778L755,3701L741,3961Z" fill="#37689e" stroke="#37689e" stroke-width="1.51"/><path d="M755,3701L562,3715L741,3961Z" fill="#4570a3" stroke="#4570a3" stroke-width="1.51"/><path d="M-196,3596L-73,3720L-67,3595Z" fill="#8b96be" stroke="#8b96be" stroke-width="1.51"/><path d="M537,3967L562,3715L377,3727Z" fill="#617ca9" stroke="#617ca9" stroke-width="1.51"/><path d="M521,-121L342,-68L495,52Z" fill="#d5e6f3" stroke="#d5e6f3" stroke-width="1.51"/><path d="M741,3961L562,3715L537,3967Z" fill="#5073a3" stroke="#5073a3" stroke-width="1.51"/><path d="M1494,3949L1664,3746L1483,3735Z" fill="#08316c" stroke="#08316c" stroke-width="1.51"/><path d="M1483,3735L1664,3746L1516,3550Z" fill="#093573" stroke="#093573" stroke-width="1.51"/><path d="M883,-141L936,113L1122,-71Z" fill="#a0bddf" stroke="#a0bddf" stroke-width="1.51"/><path d="M745,-284L521,-121L758,-95Z" fill="#bad7ec" stroke="#bad7ec" stroke-width="1.51"/><path d="M758,-95L521,-121L697,108Z" fill="#bcd9ed" stroke="#bcd9ed" stroke-width="1.51"/><path d="M893,-247L883,-141L1069,-314Z" fill="#a1c0e0" stroke="#a1c0e0" stroke-width="1.51"/><path d="M1069,-314L883,-141L1122,-71Z" fill="#9db9dd" stroke="#9db9dd" stroke-width="1.51"/><path d="M1664,-103L1447,-52L1458,73Z" fill="#878eb3" stroke="#878eb3" stroke-width="1.51"/><path d="M310,3919L377,3727L169,3706Z" fill="#7585b0" stroke="#7585b0" stroke-width="1.51"/><path d="M135,3952L310,3919L169,3706Z" fill="#7986af" stroke="#7986af" stroke-width="1.51"/><path d="M310,3919L537,3967L377,3727Z" fill="#697ea9" stroke="#697ea9" stroke-width="1.51"/><path d="M912,4109L1062,3904L916,3930Z" fill="#235994" stroke="#235994" stroke-width="1.51"/><path d="M1106,4119L1307,3931L1062,3904Z" fill="#11498a" stroke="#11498a" stroke-width="1.51"/><path d="M1062,3904L1307,3931L1084,3760Z" fill="#11498a" stroke="#11498a" stroke-width="1.51"/><path d="M-73,3720L135,3952L169,3706Z" fill="#828db4" stroke="#828db4" stroke-width="1.51"/><path d="M-196,3596L-221,3725L-73,3720Z" fill="#8a95bc" stroke="#8a95bc" stroke-width="1.51"/><path d="M-279,3922L-221,3725L-204,3350Z" fill="#8b95bc" stroke="#8b95bc" stroke-width="1.51"/><path d="M349,-244L165,-101L342,-68Z" fill="#e4eef9" stroke="#e4eef9" stroke-width="1.51"/><path d="M342,-68L165,-101L309,103Z" fill="#e5eff9" stroke="#e5eff9" stroke-width="1.51"/><path d="M-33,101L-263,63L-223,265Z" fill="#f4f8fe" stroke="#f4f8fe" stroke-width="1.51"/><path d="M-57,-78L-263,63L-33,101Z" fill="#f7faff" stroke="#f7faff" stroke-width="1.51"/><path d="M-223,265L-263,63L-244,661Z" fill="#eff5fd" stroke="#eff5fd" stroke-width="1.51"/><path d="M-244,661L-263,63L-279,1587Z" fill="#e4eef9" stroke="#e4eef9" stroke-width="1.51"/><path d="M883,-141L745,-284L758,-95Z" fill="#aecee7" stroke="#aecee7" stroke-width="1.51"/><path d="M521,-121L349,-244L342,-68Z" fill="#dae9f6" stroke="#dae9f6" stroke-width="1.51"/><path d="M1069,-314L1122,-71L1298,-328Z" fill="#96abd4" stroke="#96abd4" stroke-width="1.51"/><path d="M555,4162L676,4086L537,3967Z" fill="#5375a3" stroke="#5375a3" stroke-width="1.51"/><path d="M-71,3926L135,3952L-73,3720Z" fill="#878eb3" stroke="#878eb3" stroke-width="1.51"/><path d="M1307,3931L1494,3949L1308,3763Z" fill="#093674" stroke="#093674" stroke-width="1.51"/><path d="M1446,4106L1494,3949L1307,3931Z" fill="#08326e" stroke="#08326e" stroke-width="1.51"/><path d="M912,4109L916,3930L741,3961Z" fill="#2f6299" stroke="#2f6299" stroke-width="1.51"/><path d="M-25,-266L-57,-78L165,-101Z" fill="#f5faff" stroke="#f5faff" stroke-width="1.51"/><path d="M165,-101L-57,-78L102,123Z" fill="#f2f8fe" stroke="#f2f8fe" stroke-width="1.51"/><path d="M1298,-328L1122,-71L1269,-61Z" fill="#93a4cf" stroke="#93a4cf" stroke-width="1.51"/><path d="M1672,134L1664,-103L1458,73Z" fill="#868eb3" stroke="#868eb3" stroke-width="1.51"/><path d="M1694,-269L1664,-103L1672,134Z" fill="#878eb3" stroke="#878eb3" stroke-width="1.51"/><path d="M893,-247L745,-284L883,-141Z" fill="#aacae5" stroke="#aacae5" stroke-width="1.51"/><path d="M1069,-314L745,-284L893,-247Z" fill="#a4c5e3" stroke="#a4c5e3" stroke-width="1.51"/><path d="M537,3967L676,4086L741,3961Z" fill="#4a71a1" stroke="#4a71a1" stroke-width="1.51"/><path d="M338,4088L537,3967L310,3919Z" fill="#6a7faa" stroke="#6a7faa" stroke-width="1.51"/><path d="M541,-293L349,-244L521,-121Z" fill="#d3e6f2" stroke="#d3e6f2" stroke-width="1.51"/><path d="M-221,3725L-71,3926L-73,3720Z" fill="#8890b6" stroke="#8890b6" stroke-width="1.51"/><path d="M135,3952L338,4088L310,3919Z" fill="#7584ad" stroke="#7584ad" stroke-width="1.51"/><path d="M676,4086L912,4109L741,3961Z" fill="#38689d" stroke="#38689d" stroke-width="1.51"/><path d="M745,-284L541,-293L521,-121Z" fill="#c3ddee" stroke="#c3ddee" stroke-width="1.51"/><path d="M745,-284L1069,-314L541,-293Z" fill="#afcfe8" stroke="#afcfe8" stroke-width="1.51"/><path d="M1298,-328L1269,-61L1447,-52Z" fill="#8d99c2" stroke="#8d99c2" stroke-width="1.51"/><path d="M125,4090L338,4088L135,3952Z" fill="#7986af" stroke="#7986af" stroke-width="1.51"/><path d="M676,4086L555,4162L912,4109Z" fill="#406c9f" stroke="#406c9f" stroke-width="1.51"/><path d="M555,4162L1106,4119L912,4109Z" fill="#2f6299" stroke="#2f6299" stroke-width="1.51"/><path d="M912,4109L1106,4119L1062,3904Z" fill="#1d5492" stroke="#1d5492" stroke-width="1.51"/><path d="M-57,-78L-244,-86L-263,63Z" fill="#f7fbff" stroke="#f7fbff" stroke-width="1.51"/><path d="M-25,-266L-244,-86L-57,-78Z" fill="#f7fbff" stroke="#f7fbff" stroke-width="1.51"/><path d="M1494,3949L1713,3978L1664,3746Z" fill="#08306b" stroke="#08306b" stroke-width="1.51"/><path d="M1664,3746L1713,3978L1703,3515Z" fill="#08336f" stroke="#08336f" stroke-width="1.51"/><path d="M1703,3515L1713,3978L1708,2771Z" fill="#093e80" stroke="#093e80" stroke-width="1.51"/><path d="M1719,1437L1713,3978L1721,897Z" fill="#37679c" stroke="#37679c" stroke-width="1.51"/><path d="M1648,4128L1713,3978L1494,3949Z" fill="#08306b" stroke="#08306b" stroke-width="1.51"/><path d="M338,4088L555,4162L537,3967Z" fill="#617ba7" stroke="#617ba7" stroke-width="1.51"/><path d="M1476,-298L1298,-328L1447,-52Z" fill="#8992b8" stroke="#8992b8" stroke-width="1.51"/><path d="M1069,-314L173,-292L541,-293Z" fill="#c4deee" stroke="#c4deee" stroke-width="1.51"/><path d="M349,-244L173,-292L165,-101Z" fill="#e7f1fa" stroke="#e7f1fa" stroke-width="1.51"/><path d="M541,-293L173,-292L349,-244Z" fill="#dfebf7" stroke="#dfebf7" stroke-width="1.51"/><path d="M1298,-328L173,-292L1069,-314Z" fill="#a9c9e5" stroke="#a9c9e5" stroke-width="1.51"/><path d="M555,4162L1332,4130L1106,4119Z" fill="#1f5793" stroke="#1f5793" stroke-width="1.51"/><path d="M1106,4119L1332,4130L1307,3931Z" fill="#0a4184" stroke="#0a4184" stroke-width="1.51"/><path d="M-71,3926L125,4090L135,3952Z" fill="#828bb2" stroke="#828bb2" stroke-width="1.51"/><path d="M338,4088L125,4090L555,4162Z" fill="#7081ac" stroke="#7081ac" stroke-width="1.51"/><path d="M-71,3926L-78,4102L125,4090Z" fill="#878eb3" stroke="#878eb3" stroke-width="1.51"/><path d="M-221,3725L-279,3922L-71,3926Z" fill="#878eb3" stroke="#878eb3" stroke-width="1.51"/><path d="M-248,3132L-279,3922L-204,3350Z" fill="#8f9dc8" stroke="#8f9dc8" stroke-width="1.51"/><path d="M-279,1587L-279,3922L-257,2430Z" fill="#9fbcde" stroke="#9fbcde" stroke-width="1.51"/><path d="M1332,4130L1446,4106L1307,3931Z" fill="#093775" stroke="#093775" stroke-width="1.51"/><path d="M1664,-103L1476,-298L1447,-52Z" fill="#878eb3" stroke="#878eb3" stroke-width="1.51"/><path d="M173,-292L-25,-266L165,-101Z" fill="#f0f6fc" stroke="#f0f6fc" stroke-width="1.51"/><path d="M1664,-103L1694,-269L1476,-298Z" fill="#878eb3" stroke="#878eb3" stroke-width="1.51"/><path d="M1476,-298L1694,-269L1298,-328Z" fill="#878eb3" stroke="#878eb3" stroke-width="1.51"/><path d="M1718,708L1694,-269L1672,134Z" fill="#828bb2" stroke="#828bb2" stroke-width="1.51"/><path d="M125,4090L-268,4142L555,4162Z" fill="#7d89b0" stroke="#7d89b0" stroke-width="1.51"/><path d="M-279,3922L-78,4102L-71,3926Z" fill="#878eb3" stroke="#878eb3" stroke-width="1.51"/><path d="M1332,4130L1648,4128L1446,4106Z" fill="#08306b" stroke="#08306b" stroke-width="1.51"/><path d="M1446,4106L1648,4128L1494,3949Z" fill="#08306b" stroke="#08306b" stroke-width="1.51"/><path d="M555,4162L1648,4128L1332,4130Z" fill="#104788" stroke="#104788" stroke-width="1.51"/><path d="M-244,-86L-254,-286L-263,63Z" fill="#f7fbff" stroke="#f7fbff" stroke-width="1.51"/><path d="M-25,-266L-254,-286L-244,-86Z" fill="#f7fbff" stroke="#f7fbff" stroke-width="1.51"/><path d="M173,-292L-254,-286L-25,-266Z" fill="#f7fbff" stroke="#f7fbff" stroke-width="1.51"/><path d="M1298,-328L-254,-286L173,-292Z" fill="#dae9f5" stroke="#dae9f5" stroke-width="1.51"/><path d="M-279,3922L-268,4142L-78,4102Z" fill="#878eb3" stroke="#878eb3" stroke-width="1.51"/><path d="M-78,4102L-268,4142L125,4090Z" fill="#878eb3" stroke="#878eb3" stroke-width="1.51"/></svg>