<?xml version="1.0" standalone="no"?>
<!DOCTYPE svg PUBLIC "-//W3C//DTD SVG 20010904//EN"
 "http://www.w3.org/TR/2001/REC-SVG-20010904/DTD/svg10.dtd">
<svg version="1.0" xmlns="http://www.w3.org/2000/svg"
 width="700.000000pt" height="700.000000pt" viewBox="0 0 700.000000 700.000000"
 preserveAspectRatio="xMidYMid meet">
<metadata>
Created by potrace 1.14, written by Peter Selinger 2001-2017
</metadata>
<g transform="translate(0.000000,700.000000) scale(0.100000,-0.100000)"
fill="#000000" stroke="none">
<path d="M6572 6985 c-23 -9 -111 -55 -195 -104 -335 -194 -493 -285 -522
-301 -208 -120 -333 -192 -345 -199 -13 -8 -202 -118 -349 -202 -25 -15 -134
-77 -241 -139 -107 -62 -215 -124 -240 -138 -25 -14 -83 -47 -130 -75 -118
-69 -191 -111 -375 -216 -88 -51 -167 -96 -175 -101 -8 -5 -37 -22 -65 -38
-27 -16 -95 -55 -150 -87 -55 -32 -113 -66 -130 -75 -16 -9 -325 -187 -685
-395 -360 -208 -673 -389 -695 -401 -22 -12 -114 -65 -204 -118 -90 -53 -165
-96 -167 -96 -2 0 -41 -22 -86 -49 -46 -27 -102 -59 -124 -72 -23 -13 -139
-80 -258 -149 -256 -148 -180 -104 -716 -413 -239 -138 -472 -272 -517 -299
-140 -84 -196 -166 -199 -296 -2 -82 13 -135 57 -198 44 -64 81 -88 240 -155
79 -34 158 -67 174 -74 17 -7 86 -36 155 -65 69 -28 152 -63 185 -77 33 -14
75 -32 93 -39 17 -8 47 -20 65 -28 17 -8 120 -51 227 -96 107 -44 218 -90 245
-102 28 -11 59 -24 70 -29 11 -5 47 -20 79 -34 57 -24 60 -25 80 -8 26 23 66
59 191 169 56 49 132 116 170 149 38 33 92 80 119 105 69 62 66 59 136 120 35
30 68 60 74 65 6 6 67 59 136 120 69 60 132 116 141 124 8 9 42 39 74 66 32
28 68 59 81 70 20 18 76 68 197 175 22 19 52 46 66 58 14 13 53 47 85 75 33
29 70 61 82 72 12 11 35 31 50 45 146 128 441 387 450 395 20 19 149 132 244
216 52 46 111 97 130 115 19 17 91 80 160 140 68 60 132 116 140 124 9 8 47
42 85 75 39 33 90 78 115 101 25 22 88 78 140 124 52 45 109 94 125 109 17 15
89 78 160 140 72 63 135 119 140 125 6 6 44 40 85 76 41 35 89 77 105 92 17
15 39 35 51 45 11 10 47 41 80 70 115 101 118 103 152 103 36 0 68 -26 78 -64
6 -26 -11 -66 -46 -106 -12 -14 -39 -45 -59 -70 -20 -25 -38 -47 -41 -50 -3
-3 -24 -27 -45 -55 -22 -27 -42 -52 -45 -55 -7 -6 -430 -522 -508 -619 -29
-36 -61 -75 -70 -86 -24 -28 -268 -325 -460 -560 -90 -110 -172 -210 -182
-222 -10 -12 -100 -121 -200 -243 -100 -122 -190 -231 -200 -243 -10 -12 -135
-164 -277 -337 -333 -406 -355 -434 -488 -595 -19 -22 -79 -96 -135 -165 -56
-69 -112 -136 -123 -150 -12 -14 -49 -59 -82 -100 -33 -41 -66 -81 -73 -89
-17 -17 -171 -206 -197 -240 -11 -14 -32 -39 -47 -56 -15 -16 -28 -39 -29 -50
-1 -11 -2 -267 -3 -570 -1 -564 2 -610 39 -682 25 -49 89 -110 148 -140 45
-24 64 -27 142 -27 73 0 99 4 137 23 75 36 21 -25 727 833 139 170 256 308
260 308 4 0 52 -18 107 -41 54 -23 124 -51 154 -63 30 -13 109 -46 175 -74 66
-28 192 -80 280 -117 88 -36 179 -75 202 -86 24 -10 45 -19 48 -19 3 0 24 -9
48 -19 23 -11 168 -72 322 -136 154 -64 294 -123 310 -130 154 -69 275 -61
385 26 85 67 112 132 146 353 3 21 8 48 10 60 2 11 11 62 19 111 8 50 21 133
30 185 9 52 18 110 21 129 3 18 8 43 10 55 2 11 9 50 15 86 17 111 19 123 30
185 6 33 12 69 14 80 4 24 13 81 25 155 17 103 19 115 25 155 4 22 8 47 10 55
2 8 7 38 11 65 3 28 8 52 9 55 2 3 7 33 10 65 4 33 9 63 11 66 2 3 8 37 14 75
6 38 13 80 15 94 7 45 36 215 41 240 2 14 9 57 14 95 6 39 12 77 15 85 2 8 6
33 10 55 9 63 15 96 25 150 5 28 12 68 15 90 4 22 10 65 15 95 5 30 12 73 15
95 3 22 8 49 10 61 3 12 7 39 11 60 3 21 9 57 14 79 5 22 12 67 15 100 4 33 9
63 11 66 1 3 10 50 19 105 9 54 18 113 21 129 2 17 9 53 14 80 5 28 12 68 16
90 10 72 24 159 29 185 3 14 8 41 10 60 3 19 8 51 11 70 3 19 8 46 10 60 2 14
6 35 9 47 3 12 7 41 10 65 3 24 10 67 16 96 6 29 12 65 14 80 4 29 12 81 20
122 3 14 7 41 10 60 3 19 7 46 10 60 3 14 7 41 10 60 3 19 7 46 10 60 13 70
21 118 30 184 3 28 8 52 10 55 2 3 6 31 10 61 4 30 9 58 11 61 1 3 6 30 9 60
4 30 11 74 16 98 5 24 12 65 15 90 3 25 9 62 14 81 4 19 12 58 16 85 4 28 8
57 9 65 2 8 6 35 9 60 4 25 15 92 26 150 10 58 22 125 25 150 4 25 9 52 10 60
29 158 26 242 -10 315 -30 62 -94 123 -163 155 -61 29 -171 36 -230 15z"/>
</g>
</svg>
